<svg width="122" height="33" viewBox="0 0 122 33" fill="none" xmlns="http://www.w3.org/2000/svg">
<path d="M40.8467 27.0796C40.3404 26.9367 39.9759 26.6878 39.7512 26.3329C39.5264 25.9779 39.4151 25.4606 39.4151 24.7831H40.5455C40.5455 25.2355 40.6132 25.5731 40.7507 25.7961C40.8882 26.019 41.126 26.1727 41.4643 26.2549C41.8026 26.3372 42.311 26.3805 42.9876 26.3805C43.6641 26.3805 44.1791 26.3329 44.5283 26.2398C44.8775 26.1446 45.1197 25.9909 45.2528 25.7766C45.3859 25.5623 45.4536 25.2571 45.4536 24.8654C45.4536 24.5342 45.3903 24.2788 45.2659 24.1013C45.1415 23.9238 44.9189 23.7961 44.5981 23.716C44.2795 23.636 43.8147 23.597 43.2058 23.597H42.1212C41.4294 23.597 40.8816 23.5191 40.4779 23.3654C40.0741 23.2117 39.7861 22.9715 39.6115 22.6468C39.4369 22.3221 39.3496 21.8849 39.3496 21.333C39.3496 20.7378 39.4762 20.2681 39.7315 19.9304C39.9869 19.5906 40.3731 19.3525 40.8903 19.2183C41.4075 19.082 42.0884 19.0149 42.933 19.0149C43.8452 19.0149 44.561 19.095 45.0782 19.253C45.5954 19.411 45.9664 19.6707 46.1912 20.0343C46.416 20.3958 46.5273 20.8979 46.5273 21.5408H45.3859C45.3859 21.1339 45.3074 20.8135 45.1524 20.5841C44.9975 20.3547 44.7422 20.188 44.3886 20.0863C44.0351 19.9845 43.5506 19.9326 42.933 19.9326C42.3154 19.9326 41.8462 19.9694 41.5014 20.0451C41.1544 20.1209 40.8991 20.2573 40.731 20.4586C40.563 20.6577 40.4801 20.9477 40.4801 21.3243C40.4801 21.6642 40.5324 21.926 40.635 22.11C40.7376 22.2962 40.9493 22.4347 41.2679 22.5299C41.5865 22.6252 42.071 22.6706 42.7169 22.6706H44.0176C44.6636 22.6706 45.1721 22.7399 45.5409 22.8806C45.9097 23.0191 46.1759 23.2464 46.3396 23.5602C46.5033 23.874 46.584 24.3091 46.584 24.8675C46.584 25.4866 46.4727 25.9692 46.248 26.3155C46.0232 26.6619 45.6522 26.9129 45.135 27.0688C44.6178 27.2224 43.902 27.3004 42.9897 27.3004C42.0775 27.3004 41.3552 27.2289 40.8489 27.0861L40.8467 27.0796Z" fill="white"/>
<path d="M48.5964 27.0104C48.1665 26.8221 47.8566 26.5104 47.6667 26.0776C47.4769 25.6447 47.3809 25.0408 47.3809 24.2724V21.4651H48.4546V24.2724C48.4546 24.8005 48.5157 25.2161 48.6379 25.517C48.7601 25.8178 48.9587 26.0364 49.238 26.1685C49.5174 26.3005 49.9015 26.3676 50.3968 26.3676C50.8922 26.3676 51.2654 26.3027 51.5448 26.1685C51.8219 26.0364 52.0227 25.82 52.1427 25.517C52.2649 25.2161 52.326 24.8005 52.326 24.2724V21.4435H53.3866V24.2724C53.3866 25.043 53.2906 25.6447 53.1008 26.0776C52.9109 26.5126 52.6032 26.8221 52.1776 27.0104C51.7521 27.1987 51.1585 27.294 50.3968 27.294C49.6352 27.294 49.0285 27.1987 48.5986 27.0104H48.5964Z" fill="white"/>
<path d="M54.582 19.1902H55.6667V22.2572C56.0551 21.5927 56.7884 21.2615 57.8686 21.2615C58.5757 21.2615 59.13 21.3568 59.5294 21.5451C59.9287 21.7334 60.2168 22.0451 60.3914 22.4779C60.566 22.9108 60.6533 23.5104 60.6533 24.2723C60.6533 25.0342 60.566 25.6445 60.3914 26.0774C60.2168 26.5125 59.9287 26.822 59.5294 27.0103C59.13 27.1986 58.5757 27.2938 57.8686 27.2938C57.3274 27.2938 56.8757 27.2181 56.5112 27.0666C56.1468 26.9151 55.8652 26.6705 55.6667 26.3307V27.112H54.582V19.188V19.1902ZM56.1162 25.8956C56.4174 26.2094 56.9171 26.3653 57.6177 26.3653C58.113 26.3653 58.5015 26.3004 58.7874 26.1662C59.0733 26.0341 59.2762 25.8177 59.3984 25.5147C59.5206 25.2116 59.5818 24.7982 59.5818 24.2701C59.5818 23.742 59.5206 23.3286 59.3984 23.0299C59.2762 22.7312 59.0755 22.5169 58.7939 22.3849C58.5124 22.2528 58.1218 22.1857 57.6177 22.1857C56.9411 22.1857 56.4457 22.3416 56.1337 22.6554C55.8216 22.9693 55.6667 23.5061 55.6667 24.2679C55.6667 25.0298 55.8172 25.5796 56.1184 25.8913L56.1162 25.8956Z" fill="white"/>
<path d="M62.5404 27.1013C62.117 26.9736 61.8158 26.768 61.6325 26.4844C61.4492 26.2009 61.3575 25.8113 61.3575 25.3134H62.4072C62.4072 25.6295 62.4596 25.8697 62.5622 26.032C62.6647 26.1944 62.8481 26.3091 63.1099 26.3762C63.3718 26.4433 63.7625 26.4779 64.2797 26.4779C64.7511 26.4779 65.1177 26.4455 65.3818 26.3827C65.6436 26.3178 65.8335 26.216 65.947 26.0775C66.0605 25.939 66.1172 25.7507 66.1172 25.5169C66.1172 25.2831 66.0605 25.1057 65.947 24.9845C65.8335 24.8632 65.6436 24.7788 65.3774 24.729C65.1111 24.6793 64.7314 24.6555 64.236 24.6555H63.5617C62.7259 24.6555 62.1454 24.5191 61.8224 24.2485C61.4994 23.978 61.3379 23.5732 61.3379 23.0365C61.3379 22.4261 61.5583 21.978 61.9991 21.6945C62.44 21.411 63.1863 21.2703 64.236 21.2703C64.9737 21.2703 65.552 21.3352 65.971 21.4629C66.39 21.5906 66.689 21.7962 66.8723 22.0798C67.0556 22.3633 67.1451 22.7529 67.1451 23.2507H66.0954C66.0954 22.9347 66.0452 22.6945 65.947 22.5321C65.8488 22.3698 65.6676 22.2551 65.4058 22.1858C65.1439 22.1187 64.7489 22.0841 64.2251 22.0841C63.5333 22.0841 63.0532 22.1555 62.787 22.2984C62.5207 22.4412 62.3876 22.6858 62.3876 23.0343C62.3876 23.2832 62.4465 23.465 62.5644 23.5776C62.6822 23.6901 62.8655 23.7659 63.1121 23.8048C63.3587 23.8438 63.7297 23.8611 64.2251 23.8611H65.1046C65.6305 23.8611 66.043 23.9217 66.342 24.0429C66.6431 24.1641 66.8548 24.3438 66.9814 24.5862C67.108 24.8286 67.1691 25.1403 67.1691 25.5256C67.1691 26.1359 66.9487 26.584 66.5078 26.8675C66.067 27.1511 65.325 27.2918 64.2819 27.2918C63.5442 27.2918 62.9637 27.2268 62.5425 27.0991L62.5404 27.1013Z" fill="white"/>
<path d="M69.0819 27.0103C68.6455 26.822 68.3312 26.5103 68.1414 26.0774C67.9515 25.6445 67.8555 25.0406 67.8555 24.2723C67.8555 23.5039 67.9515 22.913 68.1414 22.4844C68.3312 22.0537 68.6455 21.7442 69.0819 21.5559C69.5184 21.3676 70.1229 21.2723 70.8911 21.2723C71.6593 21.2723 72.2223 21.3481 72.6479 21.4996C73.0734 21.6511 73.3811 21.9 73.5732 22.2463C73.7652 22.5927 73.8591 23.0688 73.8591 23.6727H72.8094C72.8094 23.2809 72.7483 22.9736 72.6261 22.7507C72.5038 22.5277 72.3052 22.3675 72.0259 22.2701C71.7488 22.1727 71.369 22.123 70.8911 22.123C70.4132 22.123 70.0094 22.1792 69.7279 22.294C69.4464 22.4087 69.2434 22.5948 69.1169 22.8545C68.9903 23.1143 68.9292 23.4757 68.9292 23.9346V24.6359C68.9292 25.0883 68.9925 25.4432 69.1169 25.7008C69.2434 25.9584 69.4464 26.1423 69.7279 26.2549C70.0094 26.3674 70.3979 26.4237 70.8911 26.4237C71.3843 26.4237 71.7466 26.3739 72.0215 26.2765C72.2943 26.1791 72.4929 26.0211 72.6151 25.8004C72.7373 25.5817 72.7985 25.2787 72.7985 24.8956H73.8591C73.8285 25.4995 73.715 25.9757 73.5164 26.322C73.3178 26.6683 73.0101 26.9172 72.5911 27.0687C72.1721 27.2202 71.6069 27.296 70.8911 27.296C70.1229 27.296 69.5206 27.2008 69.0819 27.0124V27.0103Z" fill="white"/>
<path d="M75.0549 21.4542H76.1395V22.3719C76.2836 22.0927 76.4887 21.8893 76.755 21.7616C77.0212 21.6339 77.3114 21.5516 77.6279 21.5192C77.9443 21.4845 78.3568 21.465 78.8653 21.4564V22.3849H78.0207C77.3202 22.3849 76.8357 22.4975 76.5651 22.7183C76.2945 22.9412 76.1526 23.2399 76.1374 23.6187V27.1164H75.0527V21.4564L75.0549 21.4542Z" fill="white"/>
<path d="M79.9912 19.0928C80.1091 18.9759 80.3098 18.9175 80.5914 18.9175C80.8729 18.9175 81.0606 18.9759 81.1784 19.0928C81.2963 19.2097 81.3552 19.4045 81.3552 19.675C81.3552 19.9456 81.2963 20.1426 81.1784 20.2638C81.0606 20.385 80.8642 20.4456 80.5914 20.4456C80.3186 20.4456 80.1091 20.385 79.9912 20.2638C79.8734 20.1426 79.8145 19.9478 79.8145 19.675C79.8145 19.4023 79.8734 19.2097 79.9912 19.0928ZM80.0436 21.452H81.1282V27.1121H80.0436V21.452Z" fill="white"/>
<path d="M82.9531 21.4542H84.0377V22.2572C84.4262 21.5928 85.1595 21.2616 86.2397 21.2616C86.9468 21.2616 87.5011 21.3568 87.9005 21.5451C88.2998 21.7334 88.5879 22.0451 88.7625 22.478C88.9371 22.9109 89.0244 23.5105 89.0244 24.2723C89.0244 25.0342 88.9371 25.6446 88.7625 26.0775C88.5879 26.5125 88.2998 26.8221 87.9005 27.0104C87.5011 27.1987 86.9468 27.2939 86.2397 27.2939C85.6985 27.2939 85.2468 27.2182 84.8823 27.0666C84.5179 26.9151 84.2363 26.6705 84.0377 26.3307V29.3761H82.9531V21.4521V21.4542ZM84.4873 25.8957C84.7885 26.2095 85.2882 26.3654 85.9888 26.3654C86.4841 26.3654 86.8726 26.3004 87.1585 26.1662C87.4444 26.0342 87.6473 25.8178 87.7695 25.5147C87.8917 25.2117 87.9529 24.7983 87.9529 24.2702C87.9529 23.7421 87.8917 23.3286 87.7695 23.0299C87.6473 22.7313 87.4466 22.517 87.165 22.3849C86.8835 22.2529 86.4929 22.1858 85.9888 22.1858C85.3122 22.1858 84.8168 22.3417 84.5048 22.6555C84.1927 22.9693 84.0377 23.5061 84.0377 24.268C84.0377 25.0299 84.1883 25.5797 84.4895 25.8913L84.4873 25.8957Z" fill="white"/>
<path d="M91.3922 26.9324C91.0758 26.8112 90.8488 26.6121 90.707 26.3329C90.5651 26.0537 90.4953 25.6684 90.4953 25.1792V22.4629H89.6289V21.5689H90.4953V19.8266L91.4773 19.1924H91.5799V21.5689H94.0678V22.4629H91.5799V24.9758C91.5799 25.4281 91.6803 25.7463 91.8833 25.926C92.084 26.1078 92.4376 26.1965 92.9395 26.1965H94.0699V27.1143H92.7125C92.1495 27.1143 91.7109 27.0536 91.3944 26.9324H91.3922Z" fill="white"/>
<path d="M95.6358 19.0928C95.7536 18.9759 95.9544 18.9175 96.2359 18.9175C96.5175 18.9175 96.7051 18.9759 96.823 19.0928C96.9408 19.2097 96.9997 19.4045 96.9997 19.675C96.9997 19.9456 96.9408 20.1426 96.823 20.2638C96.7051 20.385 96.5087 20.4456 96.2359 20.4456C95.9631 20.4456 95.7536 20.385 95.6358 20.2638C95.5179 20.1426 95.459 19.9478 95.459 19.675C95.459 19.4023 95.5179 19.2097 95.6358 19.0928ZM95.6882 21.452H96.7728V27.1121H95.6882V21.452Z" fill="white"/>
<path d="M99.3015 27.0103C98.8716 26.822 98.5617 26.5103 98.3718 26.0774C98.182 25.6445 98.0859 25.0406 98.0859 24.2723C98.0859 23.5039 98.182 22.913 98.3718 22.4844C98.5617 22.0537 98.8738 21.7442 99.308 21.5559C99.7423 21.3676 100.338 21.2723 101.1 21.2723C101.861 21.2723 102.444 21.3676 102.874 21.5559C103.304 21.7442 103.614 22.0537 103.804 22.4844C103.994 22.9152 104.09 23.5104 104.09 24.2723C104.09 25.0341 103.994 25.6445 103.804 26.0774C103.614 26.5125 103.306 26.822 102.878 27.0103C102.453 27.1986 101.859 27.2938 101.098 27.2938C100.336 27.2938 99.7292 27.1986 99.2993 27.0103H99.3015ZM99.3408 25.5168C99.463 25.8177 99.6616 26.0363 99.9409 26.1683C100.218 26.3003 100.604 26.3674 101.1 26.3674C101.595 26.3674 101.968 26.3025 102.248 26.1683C102.525 26.0363 102.726 25.8198 102.848 25.5168C102.97 25.2138 103.031 24.8004 103.031 24.2723C103.031 23.7441 102.97 23.3415 102.848 23.045C102.726 22.7463 102.527 22.532 102.248 22.4C101.97 22.268 101.586 22.203 101.1 22.203C100.613 22.203 100.218 22.268 99.9409 22.4C99.6638 22.532 99.463 22.7463 99.3408 23.0407C99.2186 23.3351 99.1575 23.7463 99.1575 24.2744C99.1575 24.8025 99.2186 25.2181 99.3408 25.519V25.5168Z" fill="white"/>
<path d="M105.287 21.4542H106.372V22.6641C106.555 22.1879 106.832 21.8373 107.205 21.6122C107.579 21.3849 108.056 21.2723 108.644 21.2723C109.283 21.2723 109.785 21.3568 110.149 21.5277C110.514 21.6966 110.778 21.9779 110.937 22.3719C111.096 22.7636 111.173 23.3048 111.166 23.9909H111.155V27.1142H110.071L110.082 23.9779C110.082 23.5255 110.025 23.1684 109.911 22.9087C109.798 22.6489 109.61 22.4606 109.353 22.3481C109.093 22.2355 108.737 22.1771 108.279 22.1771C107.618 22.1771 107.133 22.3459 106.83 22.6814C106.524 23.0169 106.376 23.5428 106.385 24.2593H106.374V27.112H105.289V21.452L105.287 21.4542Z" fill="white"/>
<path d="M113.451 27.1013C113.027 26.9736 112.726 26.768 112.543 26.4844C112.359 26.2009 112.268 25.8113 112.268 25.3134H113.317C113.317 25.6295 113.37 25.8697 113.472 26.032C113.575 26.1944 113.758 26.3091 114.02 26.3762C114.282 26.4433 114.673 26.4779 115.19 26.4779C115.661 26.4779 116.028 26.4455 116.292 26.3827C116.554 26.3178 116.744 26.216 116.857 26.0775C116.971 25.939 117.027 25.7507 117.027 25.5169C117.027 25.2831 116.971 25.1057 116.857 24.9845C116.744 24.8632 116.554 24.7788 116.288 24.729C116.021 24.6793 115.642 24.6555 115.146 24.6555H114.472C113.636 24.6555 113.056 24.5191 112.733 24.2485C112.41 23.978 112.248 23.5732 112.248 23.0365C112.248 22.4261 112.468 21.978 112.909 21.6945C113.35 21.411 114.096 21.2703 115.146 21.2703C115.884 21.2703 116.462 21.3352 116.881 21.4629C117.3 21.5906 117.599 21.7962 117.782 22.0798C117.966 22.3633 118.055 22.7529 118.055 23.2507H117.006C117.006 22.9347 116.955 22.6945 116.857 22.5321C116.759 22.3698 116.578 22.2551 116.316 22.1858C116.054 22.1187 115.659 22.0841 115.135 22.0841C114.443 22.0841 113.963 22.1555 113.697 22.2984C113.431 22.4412 113.298 22.6858 113.298 23.0343C113.298 23.2832 113.357 23.465 113.475 23.5776C113.592 23.6901 113.776 23.7659 114.022 23.8048C114.269 23.8438 114.64 23.8611 115.135 23.8611H116.015C116.541 23.8611 116.953 23.9217 117.252 24.0429C117.553 24.1641 117.765 24.3438 117.892 24.5862C118.018 24.8286 118.079 25.1403 118.079 25.5256C118.079 26.1359 117.859 26.584 117.418 26.8675C116.977 27.1511 116.235 27.2918 115.192 27.2918C114.454 27.2918 113.874 27.2268 113.453 27.0991L113.451 27.1013Z" fill="white"/>
<path d="M47.9058 14.1364C47.6352 14.7597 47.2031 15.2034 46.6073 15.4653C46.0116 15.7272 45.1866 15.8571 44.1304 15.8571C42.8843 15.8571 41.9088 15.6623 41.2061 15.2727C40.5033 14.8831 40.0014 14.2468 39.6981 13.368C39.3947 12.4871 39.2441 11.2685 39.2441 9.70791C39.2441 8.14735 39.4275 6.9634 39.7919 6.08896C40.1564 5.21452 40.7587 4.58467 41.5945 4.1994C42.4303 3.81413 43.5848 3.62366 45.0579 3.62366C46.531 3.62366 47.6505 3.76868 48.4863 4.05871C49.3222 4.34875 49.9354 4.81627 50.3238 5.46344C50.7123 6.11061 50.9109 7.00019 50.9218 8.13869H47.9211C47.9211 7.58243 47.8294 7.14521 47.6439 6.82704C47.4584 6.50886 47.1616 6.2816 46.7514 6.14091C46.3411 6.00238 45.7759 5.93096 45.0579 5.93096C44.3399 5.93096 43.7376 6.05 43.3229 6.29025C42.9061 6.53051 42.6093 6.92011 42.4303 7.46122C42.2514 8.00233 42.1597 8.75556 42.1597 9.72523C42.1597 10.6949 42.2492 11.4113 42.4303 11.9395C42.6093 12.4697 42.9083 12.8507 43.3229 13.0844C43.7376 13.3182 44.3181 13.4351 45.0579 13.4351C46.0006 13.4351 46.6859 13.2857 47.1136 12.9849C47.5414 12.684 47.7923 12.1559 47.8709 11.3962H44.8549V9.14083H50.9218V15.593H47.9058V14.1385V14.1364Z" fill="white"/>
<path d="M60.4937 14.1364C60.2231 14.7597 59.791 15.2034 59.1952 15.4653C58.5994 15.7272 57.7745 15.8571 56.7183 15.8571C55.4722 15.8571 54.4967 15.6623 53.7939 15.2727C53.0912 14.8831 52.5893 14.2468 52.286 13.368C51.9826 12.4871 51.832 11.2685 51.832 9.70791C51.832 8.14735 52.0153 6.9634 52.3798 6.08896C52.7442 5.21452 53.3466 4.58467 54.1824 4.1994C55.0182 3.81413 56.1727 3.62366 57.6458 3.62366C59.1188 3.62366 60.2384 3.76868 61.0742 4.05871C61.91 4.34875 62.5233 4.81627 62.9117 5.46344C63.3002 6.11061 63.4988 7.00019 63.5097 8.13869H60.509C60.509 7.58243 60.4173 7.14521 60.2318 6.82704C60.0463 6.50886 59.7495 6.2816 59.3393 6.14091C58.929 6.00238 58.3638 5.93096 57.6458 5.93096C56.9278 5.93096 56.3255 6.05 55.9108 6.29025C55.494 6.53051 55.1972 6.92011 55.0182 7.46122C54.8393 8.00233 54.7476 8.75556 54.7476 9.72523C54.7476 10.6949 54.8371 11.4113 55.0182 11.9395C55.1972 12.4697 55.4962 12.8507 55.9108 13.0844C56.3255 13.3182 56.906 13.4351 57.6458 13.4351C58.5885 13.4351 59.2738 13.2857 59.7015 12.9849C60.1293 12.684 60.3802 12.1559 60.4588 11.3962H57.4428V9.14083H63.5097V15.593H60.4937V14.1385V14.1364Z" fill="white"/>
<path d="M15.7775 0.398673C20.295 0.277464 24.4611 2.11291 27.728 5.13231C30.6 7.90064 32.3415 11.9828 32.3982 15.9351C32.3917 20.3159 31.1368 24.2032 28.0881 27.4348C28.0226 27.504 27.9572 27.5754 27.8895 27.6469C27.0406 28.5494 26.1655 29.3157 25.1092 29.9672C24.9608 30.0602 24.8124 30.1511 24.6596 30.2485C21.2443 32.3091 17.1306 33.0666 13.1828 32.3437C12.8532 32.2636 12.5237 32.1749 12.1985 32.0797C12.1003 32.0515 11.9999 32.0234 11.8974 31.9952C9.52298 31.3134 7.56979 30.2637 5.67116 28.7031C5.55768 28.6137 5.44347 28.5235 5.32854 28.4326C2.26236 25.9045 0.468482 21.8527 0.0603856 17.9913C-0.32807 13.5152 1.17556 9.30753 4.05406 5.87905C6.86272 2.64753 10.8608 0.764465 15.1359 0.433304C15.3498 0.422482 15.5637 0.409496 15.7797 0.398673H15.7775Z" fill="#8552FE"/>
<path d="M22.9374 6.69934C23.136 6.69717 23.3368 6.69284 23.5354 6.68851C23.8235 6.67986 24.1137 6.67769 24.4018 6.67553C24.5742 6.67336 24.7466 6.66903 24.9255 6.66687C25.5366 6.77509 25.7374 6.95907 26.1018 7.45256C26.2437 8.12571 26.2066 8.80534 26.2 9.49364C26.2044 9.67978 26.2088 9.86376 26.2109 10.0564C26.208 10.9308 26.112 11.5167 25.9229 11.8139C25.4231 12.2468 24.9103 12.3918 24.2577 12.3788C23.9799 12.197 23.7434 12.0094 23.5485 11.8161C23.0706 12.0217 22.7607 12.2814 22.394 12.6472C22.2784 12.7619 22.1627 12.8767 22.0449 12.9935C21.9183 13.1191 21.7939 13.2446 21.6651 13.3745C21.5298 13.5087 21.3967 13.6429 21.2614 13.7749C20.9712 14.0628 20.6831 14.3507 20.395 14.6407C19.9389 15.0974 19.4806 15.5519 19.0223 16.0086C17.9683 17.0584 16.9142 18.1081 15.8623 19.16C14.8977 20.1232 13.9331 21.0842 12.9664 22.0453C12.5124 22.4976 12.0563 22.95 11.6046 23.4045C11.3209 23.6859 11.0394 23.9694 10.7556 24.2508C10.5614 24.4435 10.3694 24.6361 10.1773 24.8309C10.0617 24.9456 9.946 25.0603 9.82597 25.1794C9.72559 25.2789 9.6252 25.3785 9.52263 25.4824C9.04252 25.9045 8.66279 26.1469 8.02555 26.2399C7.35121 26.1469 7.1417 25.9456 6.66814 25.4651C6.48919 24.9348 6.45209 24.6166 6.52629 24.0582C6.64413 23.8908 6.78307 23.7205 6.94311 23.5474C7.03477 23.4478 7.12425 23.3504 7.21809 23.2487C7.75931 22.6838 8.31144 22.1297 8.87011 21.5777C9.00105 21.4479 9.13418 21.3158 9.26948 21.1816C9.62738 20.8267 9.98529 20.4717 10.3432 20.1189C10.7185 19.7466 11.0939 19.3765 11.4693 19.0042C12.1785 18.3008 12.8878 17.5995 13.597 16.8982C14.4045 16.0974 15.212 15.2987 16.0194 14.4978C17.6802 12.8529 19.3388 11.2079 20.9995 9.56506C20.9093 9.4554 20.8177 9.34429 20.7245 9.23174C20.2706 8.65816 20.227 8.32916 20.2903 7.59542C20.9777 6.54999 21.7961 6.71232 22.9418 6.7015L22.9374 6.69934Z" fill="#F9F8FA"/>
<path d="M17.7301 6.74694C18.1382 7.00018 18.3673 7.16684 18.5812 7.59107C18.6772 8.1127 18.7208 8.6365 18.4284 9.09969C18.3542 9.17761 18.2822 9.25553 18.2058 9.33778C18.1141 9.43518 18.0247 9.53258 17.9308 9.63214C17.1539 10.4287 16.3683 11.2144 15.5761 11.9957C15.3819 12.1884 15.1855 12.3832 14.9912 12.5758C14.5853 12.9784 14.1772 13.3831 13.7691 13.7857C13.2475 14.303 12.7238 14.8203 12.2022 15.3398C11.8007 15.738 11.3991 16.1385 10.9954 16.5367C10.8033 16.7272 10.6091 16.9198 10.4171 17.1103C10.1486 17.3765 9.8802 17.6428 9.61178 17.9068C9.53176 17.9862 9.45101 18.0663 9.36954 18.1471C8.83923 18.6709 8.56644 18.8722 7.82008 18.909C7.24176 18.9003 7.11737 18.8743 6.64162 18.5042C6.34701 18.0518 6.23353 17.6276 6.27936 17.0908C6.40157 16.6493 6.58706 16.4458 6.90132 16.1125C7.01698 15.9891 7.13265 15.8657 7.25268 15.7402C8.02304 14.9459 8.8065 14.1645 9.59432 13.3875C9.77982 13.2035 9.96313 13.0195 10.1486 12.8377C10.5327 12.4567 10.9168 12.0758 11.3031 11.6949C11.7963 11.2057 12.2895 10.7165 12.7805 10.2274C13.1603 9.85075 13.5422 9.47197 13.9219 9.09536C14.103 8.91571 14.2863 8.7339 14.4675 8.55425C14.7206 8.30317 14.9738 8.0521 15.2269 7.80102C15.3011 7.72599 15.3768 7.65095 15.4539 7.57592C16.2002 6.84001 16.6847 6.59543 17.7257 6.7491L17.7301 6.74694Z" fill="#F8F8FA"/>
<path d="M24.9683 14.0649C25.4876 14.3527 25.7735 14.5584 26.1031 15.0497C26.1925 15.5129 26.2253 15.7315 26.1031 16.1752C25.9561 16.3743 25.7823 16.5807 25.5815 16.7942C25.4651 16.9183 25.3473 17.0431 25.228 17.1687C24.4445 17.976 23.6479 18.7704 22.847 19.5626C22.6593 19.7487 22.4695 19.937 22.2818 20.1231C21.8912 20.5127 21.4983 20.9002 21.1055 21.2876C20.6014 21.7854 20.0995 22.2854 19.5975 22.7832C19.2091 23.1685 18.8228 23.5516 18.4343 23.9369C18.2488 24.1209 18.0633 24.3049 17.8779 24.4888C17.6203 24.7442 17.3628 24.9996 17.1031 25.255C17.026 25.3315 16.9489 25.4087 16.8718 25.4866C16.348 26.0039 16.0818 26.1901 15.3442 26.2182C14.8182 26.2096 14.6284 26.1771 14.1657 25.9022C13.7751 25.2572 13.7183 24.7854 13.8995 24.0559C14.0493 23.8467 14.2254 23.636 14.4276 23.4239C14.5432 23.3006 14.6589 23.1793 14.7789 23.0538C14.9121 22.9196 15.043 22.7832 15.1761 22.6491C15.246 22.5776 15.3158 22.5084 15.3856 22.4348C15.9443 21.8655 16.5095 21.3028 17.0748 20.7422C17.2559 20.5625 17.437 20.3829 17.6182 20.2032C17.9957 19.8288 18.3711 19.4543 18.7486 19.082C19.2309 18.6037 19.7132 18.1232 20.1933 17.6449C20.5665 17.2747 20.9375 16.9046 21.3107 16.5345C21.4874 16.357 21.6664 16.1817 21.8432 16.0042C22.0898 15.7575 22.3385 15.5107 22.5873 15.2661C22.6593 15.1925 22.7314 15.1211 22.8077 15.0454C23.4668 14.3982 24.0037 13.9328 24.9639 14.0692L24.9683 14.0649Z" fill="#F8F7FA"/>
<path d="M25.1077 21.3829C25.566 21.6751 25.7973 21.9175 26.1007 22.3677C26.1152 22.564 26.1123 22.7689 26.0919 22.9824C26.0854 23.0885 26.0767 23.1946 26.0701 23.3028C25.9108 23.779 25.6206 23.9997 25.2496 24.3374C25.0946 24.4911 24.9397 24.6469 24.7869 24.8006C24.6254 24.9629 24.4639 25.1252 24.3002 25.2854C24.2173 25.3677 24.1344 25.4521 24.0515 25.5365C23.5466 26.0401 23.0563 26.3114 22.5806 26.3503C22.1223 26.3438 21.987 26.307 21.5789 26.0603C21.1642 25.6252 21.018 25.3698 20.9395 24.7768C21.0486 23.872 21.7666 23.24 22.3929 22.621C22.4649 22.5474 22.5369 22.4738 22.6089 22.4002C23.34 21.6751 24.034 21.2466 25.1055 21.3829H25.1077Z" fill="#F8F5FA"/>
<path d="M10.496 6.74693C10.8997 6.98502 10.9717 7.15818 11.2053 7.59106C11.3406 8.20144 11.2882 8.57589 10.9696 9.11916C10.6051 9.604 10.2123 10.0196 9.77582 10.4416C9.70017 10.5167 9.62452 10.5917 9.54886 10.6667C8.988 11.2165 8.61919 11.5736 7.81609 11.5931C7.24868 11.5845 7.12211 11.5585 6.65509 11.197C6.271 10.6819 6.21207 10.3659 6.16406 9.72521C6.27973 9.25119 6.58962 9.04341 6.94752 8.71658C7.10247 8.5629 7.25741 8.40706 7.41017 8.25339C7.57167 8.09105 7.73316 7.92872 7.89683 7.76855C7.97976 7.6863 8.06269 7.60189 8.14562 7.51747C8.90507 6.75992 9.4201 6.57594 10.4938 6.7491L10.496 6.74693Z" fill="#F7F8FA"/>
</svg>
